<svg id="Layer_1" data-name="Layer 1" xmlns="http://www.w3.org/2000/svg" viewBox="0 0 383.31 384"><defs><style>.cls-1{fill:#e6e6e6;}</style></defs><path class="cls-1" d="M179.65,0H203.6c4.56.55,9.13,1,13.68,1.67,41.13,5.84,77.25,22.59,106.81,51.86C374,102.92,392.78,162.85,378.85,231.6c-11.91,58.75-46.11,102-98.62,130.62a166.49,166.49,0,0,1-35.4,14.18V234.5h41c2.09-16.15,4.12-31.92,6.22-48.21H244.88c-.12-.92-.25-1.41-.25-1.89,0-10.75-.15-21.51.13-32.25.31-12.42,6.64-18.86,19.07-19.4,8.47-.37,17-.19,25.44-.25h3.91V88.67c-15.15-.2-30.11-1.11-45-.3a61.23,61.23,0,0,0-22.48,6.18c-20,9.58-28.68,27.08-30.21,48.3-.93,12.94-.39,26-.51,39,0,1.45,0,2.9,0,4.77H154.06v47.9H195v4.44q0,70.5,0,141c0,1.35-.23,2.71-.36,4.06h-15a15.9,15.9,0,0,0-2.5-.59c-23.1-1.7-45.28-7.14-66.1-17.32Q22.25,322.7,3,225.45C1.6,218.38,1,211.15,0,204V180c.3-2.46.64-4.91.9-7.37,4.52-41.5,20.38-78,48.34-109C78.82,30.87,115.43,10.46,159,2.9,165.83,1.71,172.76,1,179.65,0Z"/></svg>