<?xml version="1.0" encoding="utf-8"?>
<!-- Generator: Adobe Illustrator 26.2.1, SVG Export Plug-In . SVG Version: 6.00 Build 0)  -->
<svg version="1.1" id="Layer_1" xmlns="http://www.w3.org/2000/svg" xmlns:xlink="http://www.w3.org/1999/xlink" x="0px" y="0px"
	 viewBox="0 0 383.3 384" style="enable-background:new 0 0 383.3 384;" xml:space="preserve">
<style type="text/css">
	.st0{fill:#E6E6E6;}
</style>
<path class="st0" d="M179.6,0h24c4.6,0.6,9.1,1,13.7,1.7c41.1,5.8,77.2,22.6,106.8,51.9c49.9,49.4,68.7,109.3,54.8,178.1
	c-11.9,58.8-46.1,102-98.6,130.6c-11.2,6.1-23.1,10.8-35.4,14.2v-142h41c2.1-16.1,4.1-31.9,6.2-48.2h-47.2c-0.1-0.9-0.2-1.4-0.2-1.9
	c0-10.8-0.1-21.5,0.1-32.2c0.3-12.4,6.6-18.9,19.1-19.4c8.5-0.4,17-0.2,25.4-0.2h3.9V88.7c-15.1-0.2-30.1-1.1-45-0.3
	c-7.8,0.6-15.5,2.7-22.5,6.2c-20,9.6-28.7,27.1-30.2,48.3c-0.9,12.9-0.4,26-0.5,39c0,1.4,0,2.9,0,4.8h-40.9v47.9H195v4.4
	c0,47,0,94,0,141c0,1.4-0.2,2.7-0.4,4.1h-15c-0.8-0.3-1.7-0.5-2.5-0.6c-23.1-1.7-45.3-7.1-66.1-17.3c-59.2-29-95.2-75.9-108-140.8
	c-1.4-7.1-2-14.3-3-21.4v-24c0.3-2.5,0.6-4.9,0.9-7.4c4.5-41.5,20.4-78,48.3-109C78.8,30.9,115.4,10.5,159,2.9
	C165.8,1.7,172.8,1,179.6,0z"/>
</svg>
