<svg id="Layer_1" data-name="Layer 1" xmlns="http://www.w3.org/2000/svg" viewBox="0 0 383.35 384.1"><defs><style>.cls-1{fill:#b3b3b3;}</style></defs><path class="cls-1" d="M179.6,0h24c4.6.6,9.1,1,13.7,1.7,41.1,5.8,77.2,22.6,106.8,51.9C374,103,392.8,162.9,378.9,231.7c-11.9,58.8-46.1,102-98.6,130.6a166.88,166.88,0,0,1-35.4,14.2v-142h41c2.1-16.1,4.1-31.9,6.2-48.2H244.9c-.1-.9-.2-1.4-.2-1.9,0-10.8-.1-21.5.1-32.2.3-12.4,6.6-18.9,19.1-19.4,8.5-.4,17-.2,25.4-.2h3.9V88.7c-15.1-.2-30.1-1.1-45-.3a60.92,60.92,0,0,0-22.5,6.2c-20,9.6-28.7,27.1-30.2,48.3-.9,12.9-.4,26-.5,39v4.8H154.1v47.9H195V380a28.45,28.45,0,0,1-.4,4.1h-15a11.36,11.36,0,0,0-2.5-.6c-23.1-1.7-45.3-7.1-66.1-17.3Q22.2,322.7,3,225.4c-1.4-7.1-2-14.3-3-21.4V180c.3-2.5.6-4.9.9-7.4,4.5-41.5,20.4-78,48.3-109C78.8,30.9,115.4,10.5,159,2.9,165.8,1.7,172.8,1,179.6,0Z"/></svg>