<svg id="Layer_1" data-name="Layer 1" xmlns="http://www.w3.org/2000/svg" viewBox="0 0 383.37 384"><defs><style>.cls-1{fill:#e84444;}.cls-2{fill:#d83333;}</style></defs><path class="cls-1" d="M176.65,0H206.6a7.25,7.25,0,0,0,1.92.72,190.31,190.31,0,0,1,102.2,40.91,26.36,26.36,0,0,0,2.5,4c3.49,3.9,7.21,7.59,10.67,11.52,17.17,19.48,29.23,41.91,37.17,66.53s10.26,50,8.07,75.79a187.33,187.33,0,0,1-18.48,66.73,193.67,193.67,0,0,1-98.9,93.11c-31.7,13.21-64.62,16.95-98.55,12.75a183.27,183.27,0,0,1-67.73-22.39,74.23,74.23,0,0,0-7.61-3.23c-4.34-3.51-8.86-6.83-13-10.56C30.36,304.82,9.22,266.44,2.13,220.41,1.48,216.18.71,212,0,207.75V175.5a8.3,8.3,0,0,0,.8-1.88C1.52,168.81,2,164,2.86,159.17A191.64,191.64,0,0,1,163.6,2.09C168,1.43,172.3.7,176.65,0Zm158,192a142.35,142.35,0,0,0-20.3-73.79c-2.36-3.9-3.49-4-6.76-.77l-34.39,34.47q-77.79,77.92-155.56,155.87c-3.91,3.91-3.8,4.74,1.12,7.62,31.34,18.35,65,24.15,100.49,17.24C286.45,319.62,334.44,260.86,334.69,192Zm-286.13.1a141.62,141.62,0,0,0,20.23,73.44c2.46,4.15,3.53,4.27,7,.8q95-95.18,190-190.38c3.58-3.59,3.44-4.62-.94-7.2q-45.86-27-98.25-17.9C98.84,62.58,48.37,123,48.56,192.13Z"/><path class="cls-2" d="M175.91,384c-4.83-.76-9.67-1.49-14.5-2.28-30.67-5.05-58.64-16.51-83.55-35.28a74.23,74.23,0,0,1,7.61,3.23,183.27,183.27,0,0,0,67.73,22.39c33.93,4.2,66.85.46,98.55-12.75a193.67,193.67,0,0,0,98.9-93.11,187.33,187.33,0,0,0,18.48-66.73c2.19-25.83-.13-51.14-8.07-75.79s-20-47.05-37.17-66.53c-3.46-3.93-7.18-7.62-10.67-11.52a26.36,26.36,0,0,1-2.5-4,185.41,185.41,0,0,1,44.84,50.72,187.08,187.08,0,0,1,26.77,79.25c10,97.75-53.06,183.85-144.49,206.86-9.47,2.38-19.32,3.23-29,4.82a5.52,5.52,0,0,0-1.49.72Z"/></svg>