<svg id="Layer_1" data-name="Layer 1" xmlns="http://www.w3.org/2000/svg" viewBox="0 0 383.32 384"><defs><style>.cls-1{fill:#e6e6e6;}</style></defs><path class="cls-1" d="M0,191.75C.09,85.88,86.06-.07,191.8,0,297.7.07,383.53,86.3,383.32,192.42c-.2,105.9-86.26,191.77-192,191.58S-.09,297.72,0,191.75Zm73.61,0h-.34c0,14.59-.09,29.18,0,43.76A115.65,115.65,0,0,0,74.45,252c3.52,22.79,14.4,40.49,36,50.34,10.85,4.95,22.42,7,34.26,7q44.83.21,89.67,0a122.6,122.6,0,0,0,19.43-1.46c24.17-4,42.07-16.35,51-39.93A84.21,84.21,0,0,0,310,237.88c0-29.69.07-59.37,0-89.06A112.34,112.34,0,0,0,308.86,132c-3.79-24.38-15.9-42.58-39.52-51.82a82.65,82.65,0,0,0-30-5.54q-47.71-.24-95.42,0c-13,.09-25.65,2.61-37.26,8.86-21.83,11.74-31.44,31.3-32.88,54.94C72.75,156.18,73.61,174,73.61,191.79Z"/><path class="cls-1" d="M191.66,96.82c15.71,0,31.43-.14,47.14.09A73.7,73.7,0,0,1,254,98.69c18.92,4.28,31.22,18.22,33.49,37.67a115.42,115.42,0,0,1,.77,13c.06,29.18.25,58.37-.12,87.54a71.49,71.49,0,0,1-3.45,21.42c-5.88,17.52-19.13,26.92-37.07,27.93-22.3,1.25-44.68,1.13-67,1.21-14.81,0-29.66,0-44.42-1.11-22.6-1.65-37.78-16.94-40.33-39.5A106.77,106.77,0,0,1,95.08,235c0-29.57-.24-59.14.13-88.7a68.57,68.57,0,0,1,3.46-20.65c5.9-17.53,19.16-26.6,37.08-28,15.51-1.18,31.14-.91,46.71-1.25,3.07-.06,6.13,0,9.2,0Zm-.09,32.78A62.41,62.41,0,1,0,254,192.3,62.17,62.17,0,0,0,191.57,129.6Zm62.76,12.71A12.42,12.42,0,1,0,241.87,130,12.4,12.4,0,0,0,254.33,142.31Z"/><path class="cls-1" d="M231.85,192.19a40.19,40.19,0,1,1-40-40.44A40.13,40.13,0,0,1,231.85,192.19Z"/></svg>