<?xml version="1.0" encoding="utf-8"?>
<!-- Generator: Adobe Illustrator 26.2.1, SVG Export Plug-In . SVG Version: 6.00 Build 0)  -->
<svg version="1.1" id="Layer_1" xmlns="http://www.w3.org/2000/svg" xmlns:xlink="http://www.w3.org/1999/xlink" x="0px" y="0px"
	 viewBox="0 0 383.3 384" style="enable-background:new 0 0 383.3 384;" xml:space="preserve">
<path d="M0,191.8C0.1,85.9,86.1-0.1,191.8,0c105.9,0.1,191.7,86.3,191.5,192.4c-0.2,105.9-86.3,191.8-192,191.6S-0.1,297.7,0,191.8z
	 M73.6,191.8h-0.3c0,14.6-0.1,29.2,0,43.8c0,5.5,0.4,11,1.2,16.5c3.5,22.8,14.4,40.5,36,50.3c10.8,5,22.4,7,34.3,7
	c29.9,0.1,59.8,0.1,89.7,0c6.5,0,13-0.5,19.4-1.5c24.2-4,42.1-16.4,51-39.9c3.5-9.6,5.3-19.8,5.2-30.1c0-29.7,0.1-59.4,0-89.1
	c0-5.6-0.3-11.2-1.1-16.8c-3.8-24.4-15.9-42.6-39.5-51.8c-9.6-3.7-19.7-5.6-30-5.5c-31.8-0.2-63.6-0.2-95.4,0
	c-13,0.1-25.7,2.6-37.3,8.9c-21.8,11.7-31.4,31.3-32.9,54.9C72.8,156.2,73.6,174,73.6,191.8L73.6,191.8z"/>
<path d="M191.7,96.8c15.7,0,31.4-0.1,47.1,0.1c5.1,0.1,10.2,0.7,15.2,1.8c18.9,4.3,31.2,18.2,33.5,37.7c0.5,4.3,0.8,8.7,0.8,13
	c0.1,29.2,0.2,58.4-0.1,87.5c-0.1,7.3-1.2,14.5-3.5,21.4c-5.9,17.5-19.1,26.9-37.1,27.9c-22.3,1.2-44.7,1.1-67,1.2
	c-14.8,0-29.7,0-44.4-1.1c-22.6-1.6-37.8-16.9-40.3-39.5c-0.5-3.9-0.7-7.9-0.8-11.9c0-29.6-0.2-59.1,0.1-88.7c0.1-7,1.3-14,3.5-20.7
	c5.9-17.5,19.2-26.6,37.1-28c15.5-1.2,31.1-0.9,46.7-1.2c3.1-0.1,6.1,0,9.2,0L191.7,96.8z M191.6,129.6c-34.5,0-62.4,28-62.4,62.4
	s28,62.4,62.4,62.4c34.3,0,62.2-27.8,62.4-62.1c0.3-34.3-27.3-62.4-61.6-62.7C192.1,129.6,191.8,129.6,191.6,129.6z M254.3,142.3
	c6.9,0,12.4-5.6,12.4-12.5c0-6.9-5.6-12.4-12.5-12.4s-12.4,5.6-12.4,12.5c0,0,0,0,0,0.1C241.9,136.8,247.5,142.3,254.3,142.3
	L254.3,142.3z"/>
<path d="M231.9,192.2c-0.1,22.2-18.2,40.1-40.4,39.9s-40.1-18.2-39.9-40.4c0.1-22.2,18.2-40,40.4-39.9c22.2,0.1,40.1,18.1,40,40.3
	C231.9,192.1,231.9,192.1,231.9,192.2z"/>
</svg>
