<svg id="Layer_1" data-name="Layer 1" xmlns="http://www.w3.org/2000/svg" viewBox="0 0 383.3 384"><defs><style>.cls-1{fill:#b3b3b3;}</style></defs><path class="cls-1" d="M0,191.8C.1,85.9,86.1-.1,191.8,0,297.7.1,383.5,86.3,383.3,192.4c-.2,105.9-86.3,191.8-192,191.6S-.1,297.7,0,191.8Zm73.6,0h-.3c0,14.6-.1,29.2,0,43.8a114.49,114.49,0,0,0,1.2,16.5c3.5,22.8,14.4,40.5,36,50.3,10.8,5,22.4,7,34.3,7q44.85.15,89.7,0a125.8,125.8,0,0,0,19.4-1.5c24.2-4,42.1-16.4,51-39.9a85.51,85.51,0,0,0,5.2-30.1c0-29.7.1-59.4,0-89.1A118.51,118.51,0,0,0,309,132c-3.8-24.4-15.9-42.6-39.5-51.8a81,81,0,0,0-30-5.5q-47.7-.3-95.4,0c-13,.1-25.7,2.6-37.3,8.9C85,95.3,75.4,114.9,73.9,138.5c-1.1,17.7-.3,35.5-.3,53.3Z"/><path class="cls-1" d="M191.7,96.8c15.7,0,31.4-.1,47.1.1A77.91,77.91,0,0,1,254,98.7c18.9,4.3,31.2,18.2,33.5,37.7a113.4,113.4,0,0,1,.8,13c.1,29.2.2,58.4-.1,87.5a70.52,70.52,0,0,1-3.5,21.4c-5.9,17.5-19.1,26.9-37.1,27.9-22.3,1.2-44.7,1.1-67,1.2-14.8,0-29.7,0-44.4-1.1-22.6-1.6-37.8-16.9-40.3-39.5a116.92,116.92,0,0,1-.8-11.9c0-29.6-.2-59.1.1-88.7a69.68,69.68,0,0,1,3.5-20.7c5.9-17.5,19.2-26.6,37.1-28,15.5-1.2,31.1-.9,46.7-1.2,3.1-.1,6.1,0,9.2,0Zm-.1,32.8a62,62,0,1,0,.8,0Zm62.7,12.7a12.45,12.45,0,1,0-12.5-12.4v.1a12.53,12.53,0,0,0,12.5,12.3Z"/><path class="cls-1" d="M231.9,192.2a28.39,28.39,0,1,1,.1-.1C231.9,192.1,231.9,192.1,231.9,192.2Z"/></svg>