<svg id="Layer_1" data-name="Layer 1" xmlns="http://www.w3.org/2000/svg" viewBox="0 0 310.83 284.81"><defs><style>.cls-1{fill:#47f4f4;}.cls-2{fill:#47f1f1;}.cls-3{fill:#f9f9f9;}.cls-4{fill:#f4f4f4;}</style></defs><path class="cls-1" d="M111.77,37.82c3.23-2.88,6.43-5.81,9.7-8.65q16-13.89,32.08-27.72C154.1,1,154.72.57,155.5,0L310.83,134l-15.16,17.57c-1.25-1-2.41-1.86-3.5-2.8L221.76,88Q189.86,60.51,158,32.93c-2.05-1.78-3.16-1.75-5.22,0C134.92,48.53,117,63.93,99,79.39q-19.63,16.94-39.26,33.9-21.25,18.33-42.54,36.65c-.56.48-1.14.93-2.06,1.68L0,134c2-1.78,3.84-3.42,5.7-5Q25.62,111.75,45.56,94.5c6.28-5.41,12.67-10.7,19-16a3.7,3.7,0,0,0,1.3-.45c2.5-2.13,5-4.28,7.42-6.48,3.79-3.4,7.54-6.85,11.3-10.28h0a18.27,18.27,0,0,0,2.71-1.61C91.19,56.3,95,52.86,98.9,49.5c4.08-3.52,8.23-7,12.32-10.48C111.52,38.76,111.59,38.23,111.77,37.82Z"/><path class="cls-1" d="M200.42,120.15Q178.7,101.48,157,82.78c-1.28-1.1-2.1-.91-3.28.12q-23.49,20.52-47.06,40.94c-13.84,11.95-27.77,23.8-41.64,35.7-1.39,1.18-2.7,2.46-4.27,3.9L45.56,145.69,57.86,135q34.62-30,69.22-59.94,13.41-11.62,26.72-23.33c1.15-1,2-.92,3.09,0Q182,72.93,207.26,94c6.24,5.23,12.52,10.44,18.78,15.67a14.52,14.52,0,0,1,1.32,1.39c1.26,1.23,2.47,2.52,3.8,3.67,5.76,5,11.56,9.91,17.34,14.85.74.64,1.44,1.33,2.23,1.9,2,1.43,4.07,2.8,6.11,4.2h0l6.67,5.55h0a17.17,17.17,0,0,0,2.07,2.18,9.65,9.65,0,0,1,4.12,8.67c-.38,26.56-.46,53.12-.68,79.68,0,3-.49,6.07-.5,9.1-.07,12.59,0,25.18,0,37.77,0,5,0,5-4.84,4.88a5.28,5.28,0,0,0-.56,0c-3.95.17-7.91.42-11.87.51s-3.84,0-3.84-3.82c0-38.88,0-77.76.09-116.65,0-3.59-.93-5.83-4.41-6.8l-.09-.06q-6.54-6-13.11-12.05c-.16-.14-.53,0-.81-.07h0a38.16,38.16,0,0,0-2.82-3c-6.51-5.75-13-11.49-19.62-17.13A74.92,74.92,0,0,0,200.42,120.15ZM252.9,278.64c.09.15.18.29.28.43a.23.23,0,0,1,.31.16c2.75.32,5.51.62,8.26,1,1.88.23,2.15-.73,2.37-2.41.53-4-.43-7.9-.29-11.92.54-14.86.2-29.76.25-44.64,0-1.75-.68-2.24-2.3-2.18-2.59.09-5.18.1-7.77,0-1.72-.07-2.22.62-2.21,2.27,0,14.24,0,28.47.1,42.71,0,1.31,1.08,2.62,1.65,3.93l.26,0,.23.1v2.19l-1.12.54c-1.56,1.86-1.59,5.8-.05,7.79Z"/><path class="cls-2" d="M213,142.84l-11.23,11.09q-46.18-37.35-92.51-.09l-11-11.08C125.21,113,180,108.89,213,142.84Z"/><path class="cls-3" d="M188.92,255.18l-.18-.92-1-6.56-1.1.16c.12,2.11.25,4.22.37,6.34q-.06,12.17-.11,24.32l-8.48,0q0-28.94-.07-57.86a2.25,2.25,0,0,1,.22-.6h13.87c.19.64.37,1.29.56,1.93l.26,1.51c.08.55.17,1.1.25,1.66l.25,1.47.3,1.86c.12.67.23,1.35.35,2l.21,1.31.26,1.48c.11.62.22,1.24.32,1.86s.17,1,.25,1.47l.3,1.86.26,1.47c.1.62.19,1.24.29,1.87l.24,1.47.32,1.86.13.95c.14,1.11.27,2.22.4,3.33l1-.08c.11-1.84.21-3.67.32-5.5.08-.49.16-1,.23-1.48.1-.8.21-1.61.31-2.42l.17-.91.4-3,.22-1.47c.12-.81.25-1.61.37-2.41l.15-.93.39-3,.15-.92,1-6.86c.27-.23.54-.66.81-.66,4.67,0,9.35.13,14,.21,0,1.1-.12,2.21-.12,3.31q0,26,0,52.06v3.1h-9.46q-.06-13-.11-26v-4.81l-.81-.05c-.15,1.64-.29,3.28-.44,4.92-.05.31-.11.62-.16.93l-.88,5.2-.2.91c-.13.81-.26,1.61-.38,2.42-.06.3-.12.61-.19.91l-.38,2.42-.19.92c-.14.8-.27,1.6-.41,2.4l-.15.93c-.31,1.73-.61,3.47-.91,5.2l-.18.91c-.14.81-.28,1.61-.41,2.41a1.48,1.48,0,0,1-.21.44l-7.71-.15-.42-1.95-.39-1.85-.18-.93-.27-1.29-.3-1.48c-.11-.62-.23-1.24-.35-1.86l-.18-.92c-.13-.62-.25-1.24-.38-1.86,0-.31-.11-.61-.17-.92l-.36-1.86-.17-.93-.4-1.85c-.06-.3-.13-.61-.19-.91-.13-.62-.25-1.24-.37-1.86-.06-.31-.13-.61-.19-.92Z"/><path class="cls-1" d="M46.14,74.61V19.5H83.65c0,2.4,0,4.77,0,7.13,0,4.73.06,9.45,0,14.17a4.42,4.42,0,0,1-.93,3C70.72,54,58.68,64.06,46.14,74.61Z"/><path class="cls-4" d="M135.09,219.89H146V243.1c2.36.82,3.12.17,3.09-2-.1-6,0-12,0-18.05v-3.12H160v59H149.07v-3.3c0-7.5,0-15,0-22.49,0-2.12-.64-2.89-3-2.21v28h-11Z"/><path class="cls-4" d="M81.06,219.75c4.18,0,8,.1,11.75,0,1.89-.07,2.51.56,2.76,2.43,1.37,10.37,2.91,20.71,4.37,31.06q1.62,11.53,3.21,23.09c.11.8.17,1.62.29,2.82-3.39,0-6.59.09-9.78-.08-.5,0-1.24-1.18-1.34-1.89-.58-3.93-1.09-7.88-1.43-11.84-.17-2-1.24-2.07-2.8-2.12s-2.56.35-2.72,2.19c-.35,3.87-.9,7.72-1.27,11.58-.15,1.58-.71,2.28-2.42,2.2-2.83-.13-5.67,0-9,0C75.52,259.18,78.27,239.62,81.06,219.75Zm7.37,20.16H87.8c-.43,4.9-.86,9.8-1.32,15.06l3.36-.19C89.35,249.58,88.89,244.75,88.43,239.91Z"/><path class="cls-4" d="M131.07,255.53c0,5.38.18,10.56-.06,15.71-.2,4.31-3.34,6.46-7,7.69a16.59,16.59,0,0,1-11.69-.53,8.43,8.43,0,0,1-5.54-8.25c-.09-13.61-.15-27.22,0-40.82.07-5.42,2.94-8.58,8.29-9.6a24.79,24.79,0,0,1,8-.2c5,.71,7.63,3.74,8,8.84.2,3.13.1,6.29.14,9.43v2.46H121v-9a6.41,6.41,0,0,0-.08-2.2,7,7,0,0,0-1.43-1.69,18.11,18.11,0,0,0-1.52,1.88c-.17.26,0,.72,0,1.09v38c0,.28-.11.63,0,.82.5.72,1.07,1.39,1.62,2.08.47-.67,1.33-1.32,1.36-2,.14-3.51.07-7,.08-10.55v-3.22Z"/><path class="cls-2" d="M178.38,177.08c-2.95-1.88-5.91-4.33-9.28-5.81-12.38-5.43-24-3.8-34.52,4.7-1.77,1.43-2.67,1.48-4.26-.18-3-3.2-6.37-6.12-9.55-9.13,16.31-18.63,49.73-21,68.88-.91Z"/><path class="cls-4" d="M48.6,219.9H70a58.9,58.9,0,0,1-.08,6.12c-.06.52-1.18,1.26-1.85,1.3-2.66.15-5.34.06-8.26.06v16h9v7.14H59.77v20.78H70.08v7.59H48.6Z"/><path class="cls-4" d="M242.59,220v7.43c-2.67,0-5.22.09-7.76,0-1.84-.09-2.67.35-2.6,2.43.15,4.42,0,8.85,0,13.59h9.2v7.3c-2.37,0-4.83-.09-7.27.06-.66,0-1.82.84-1.82,1.31-.13,6.35-.09,12.7-.09,19.28h10.19V279H221.29V220Z"/><path class="cls-4" d="M27.53,227.45H21.31v-7.53H44.54v7.39l-5.83.26V279H27.53Z"/><path class="cls-2" d="M167.92,193.44a12.54,12.54,0,1,1-25.08-.43,12.83,12.83,0,0,1,12.71-12.41C161.74,180.54,168.48,186.78,167.92,193.44Z"/><path class="cls-2" d="M243.06,156.78c3.48,1,4.43,3.21,4.41,6.8-.13,38.89-.09,77.77-.09,116.65,0,3.84,0,3.91,3.84,3.82s7.92-.34,11.87-.51a5.28,5.28,0,0,1,.56,0c4.84.13,4.84.13,4.84-4.88,0-12.59,0-25.18,0-37.77,0-3,.48-6.06.5-9.1.22-26.56.3-53.12.68-79.68a9.65,9.65,0,0,0-4.12-8.67,17.17,17.17,0,0,1-2.07-2.18c2.1,1.64,4.31,3.15,6.24,5a4.4,4.4,0,0,1,.89,3c-.24,23.59-.58,47.18-.84,70.78q-.32,28.86-.51,57.74c-.06,7.1-.05,7.09-7.23,7.07-5.15,0-10.3,0-15.66,0,0-1.61,0-2.88,0-4.15q.24-47.07.48-94.12c0-6.39-.06-12.78.26-19.15C247.35,163.11,247,159.31,243.06,156.78Z"/><path class="cls-2" d="M256.84,135.7c-2-1.4-4.1-2.77-6.11-4.2-.79-.57-1.49-1.26-2.23-1.9-5.78-4.94-11.58-9.88-17.34-14.85-1.33-1.15-2.54-2.44-3.8-3.67,4.23,3.41,8.51,6.76,12.67,10.25C245.68,126.06,251.24,130.9,256.84,135.7Z"/><path class="cls-2" d="M111.77,37.82c-.18.41-.25.94-.55,1.2C107.13,42.53,103,46,98.9,49.5c-3.9,3.36-7.71,6.8-11.61,10.14a18.27,18.27,0,0,1-2.71,1.61c6.08-5.35,12.13-10.73,18.25-16C105.75,42.67,108.79,40.28,111.77,37.82Z"/><path class="cls-2" d="M200.42,120.15a74.92,74.92,0,0,1,6.18,4.32c6.6,5.64,13.11,11.38,19.62,17.13a38.16,38.16,0,0,1,2.82,3c-4-3.36-8.11-6.66-12.1-10.08C211.4,129.77,205.93,124.94,200.42,120.15Z"/><path class="cls-2" d="M84.58,61.25c-3.76,3.43-7.51,6.88-11.3,10.28-2.44,2.2-4.92,4.35-7.42,6.48a3.7,3.7,0,0,1-1.3.45Z"/><path class="cls-2" d="M229.05,144.6c.28,0,.65-.07.81.07q6.58,6,13.11,12.05Z"/><path class="cls-2" d="M263.51,141.25l-6.67-5.55Z"/><path class="cls-2" d="M254,268c2.31,0,4.62-.12,6.93-.09,1.55,0,2.38-.41,2.38-2.19q-.08-21.93,0-43.85c0-1.45-.4-2.26-2.05-2.19-2.12.09-4.27-.14-6.37.12a2.75,2.75,0,0,0-1.85,1.92c-.11,14.8-.09,29.6-.05,44.4a6.67,6.67,0,0,0,.54,1.81c-.57-1.31-1.64-2.62-1.65-3.93-.12-14.24-.06-28.47-.1-42.71,0-1.65.49-2.34,2.21-2.27,2.59.11,5.18.1,7.77,0,1.62-.06,2.3.43,2.3,2.18-.05,14.88.29,29.78-.25,44.64-.14,4,.82,7.92.29,11.92-.22,1.68-.49,2.64-2.37,2.41-2.75-.34-5.51-.64-8.26-1,1.19,0,2.39,0,3.59,0,6.69,0,6.65,0,6.28-6.78-.08-1.53-.61-2.15-2.14-2.13-2.39,0-4.78-.06-7.17-.09Z"/><path class="cls-2" d="M252.93,270.74l-.05,7.79C251.34,276.54,251.37,272.6,252.93,270.74Z"/><path class="cls-2" d="M252.9,278.64c.1.14.19.29.28.43C253.08,278.93,253,278.79,252.9,278.64Z"/></svg>