<svg id="Layer_1" data-name="Layer 1" xmlns="http://www.w3.org/2000/svg" viewBox="0 0 383.08 384"><defs><style>.cls-1{fill:#e6e6e6;}</style></defs><path class="cls-1" d="M179.65,0H203.6c4.56.55,9.13,1,13.68,1.67,38.44,5.41,72.6,20.57,101.33,46.74,47.91,43.64,69.19,98.26,63.59,162.85-3.3,38.06-17.66,72.1-41.85,101.65C310.27,349.67,271.77,372.5,225,381c-7.08,1.29-14.27,2-21.41,3H179.65c-4.68-.58-9.37-1.07-14-1.74-38.14-5.46-71.88-20.7-100.69-46.36C31.65,306.26,10.87,269.43,3,225.46,1.7,218.35,1,211.15,0,204V180c.3-2.46.64-4.92.91-7.38C5.34,132,20.69,96,47.77,65.33,77.54,31.61,114.63,10.65,159,2.9,165.83,1.7,172.76,1,179.65,0Zm-5.41,166.83a63.19,63.19,0,0,0-23,.3c-37.49,6.87-62.42,43.7-54.4,80.4,8.31,38,46.4,61.69,83.68,52.09,31.38-8.09,52-34.64,52-67.13,0-24.61-.16-49.23-.25-73.85,0-1.29,0-2.58,0-4.56,16.88,12.3,34.81,18.73,55.13,18.71V137.56c-34.86-4.73-49.12-18.87-55.49-54.94H196.64v5q0,71.42-.08,142.84a70,70,0,0,1-.34,7.1c-1.68,16.67-16.69,29.41-33.65,28.62-16.71-.78-30.55-14.86-30.83-31.35-.29-17.47,12.58-32.06,29.53-33.14,4.25-.27,8.56.37,13,.6Z"/></svg>