<?xml version="1.0" encoding="utf-8"?>
<!-- Generator: Adobe Illustrator 26.2.1, SVG Export Plug-In . SVG Version: 6.00 Build 0)  -->
<svg version="1.1" id="Layer_1" xmlns="http://www.w3.org/2000/svg" xmlns:xlink="http://www.w3.org/1999/xlink" x="0px" y="0px"
	 viewBox="0 0 383.1 384" style="enable-background:new 0 0 383.1 384;" xml:space="preserve">
<path d="M179.6,0h24c4.6,0.6,9.1,1,13.7,1.7c38.4,5.4,72.6,20.6,101.3,46.7c47.9,43.6,69.2,98.3,63.6,162.9
	c-3.3,38.1-17.7,72.1-41.9,101.6c-30.1,36.8-68.6,59.6-115.3,68.1c-7.1,1.3-14.3,2-21.4,3h-23.9c-4.7-0.6-9.4-1.1-14-1.7
	c-38.1-5.5-71.9-20.7-100.7-46.4c-33.3-29.6-54.1-66.5-62-110.4c-1.3-7.1-2-14.3-3-21.5v-24c0.3-2.5,0.6-4.9,0.9-7.4
	C5.3,132,20.7,96,47.8,65.3C77.5,31.6,114.6,10.6,159,2.9C165.8,1.7,172.8,1,179.6,0z M174.2,166.8c-7.6-1.3-15.4-1.2-23,0.3
	c-37.5,6.9-62.4,43.7-54.4,80.4c8.3,38,46.4,61.7,83.7,52.1c31.4-8.1,52-34.6,52-67.1c0-24.6-0.2-49.2-0.2-73.9c0-1.3,0-2.6,0-4.6
	c16.9,12.3,34.8,18.7,55.1,18.7v-35.2c-34.9-4.7-49.1-18.9-55.5-54.9h-35.3v5c0,47.6,0,95.2-0.1,142.8c0,2.4-0.1,4.7-0.3,7.1
	c-1.7,16.7-16.7,29.4-33.6,28.6c-16.7-0.8-30.6-14.9-30.8-31.4c-0.3-17.5,12.6-32.1,29.5-33.1c4.2-0.3,8.6,0.4,13,0.6L174.2,166.8z"
	/>
</svg>
