<svg id="Layer_1" data-name="Layer 1" xmlns="http://www.w3.org/2000/svg" viewBox="0 0 383.07 384"><defs><style>.cls-1{fill:#b3b3b3;}</style></defs><path class="cls-1" d="M179.6,0h24c4.6.6,9.1,1,13.7,1.7,38.4,5.4,72.6,20.6,101.3,46.7,47.9,43.6,69.2,98.3,63.6,162.9-3.3,38.1-17.7,72.1-41.9,101.6Q295.15,368.1,225,381c-7.1,1.3-14.3,2-21.4,3H179.7c-4.7-.6-9.4-1.1-14-1.7-38.1-5.5-71.9-20.7-100.7-46.4C31.7,306.3,10.9,269.4,3,225.5c-1.3-7.1-2-14.3-3-21.5V180c.3-2.5.6-4.9.9-7.4C5.3,132,20.7,96,47.8,65.3,77.5,31.6,114.6,10.6,159,2.9,165.8,1.7,172.8,1,179.6,0Zm-5.4,166.8a63.52,63.52,0,0,0-23,.3c-37.5,6.9-62.4,43.7-54.4,80.4,8.3,38,46.4,61.7,83.7,52.1,31.4-8.1,52-34.6,52-67.1,0-24.6-.2-49.2-.2-73.9V154c16.9,12.3,34.8,18.7,55.1,18.7V137.5c-34.9-4.7-49.1-18.9-55.5-54.9H196.6v5q0,71.4-.1,142.8c0,2.4-.1,4.7-.3,7.1-1.7,16.7-16.7,29.4-33.6,28.6-16.7-.8-30.6-14.9-30.8-31.4-.3-17.5,12.6-32.1,29.5-33.1,4.2-.3,8.6.4,13,.6Z"/></svg>